<svg id="logo.svg" xmlns="http://www.w3.org/2000/svg" width="79" height="35" viewBox="0 0 79 35">
  <defs>
    <style>
      .cls-1 {
        fill: #fff;
        fill-rule: evenodd;
      }
    </style>
  </defs>
  <path id="x" class="cls-1" d="M48,0H75a4,4,0,0,1,4,4V31a4,4,0,0,1-4,4H48a4,4,0,0,1-4-4V4A4,4,0,0,1,48,0ZM74.987,25.584l-5.394,5.392-8.1-8.1-8.1,8.109-5.392-5.394,8.1-8.107-8.1-8.1,5.394-5.392,8.1,8.1,8.095-8.1,5.392,5.394-8.092,8.1Z"/>
  <path id="i" class="cls-1" d="M31.012,31.012h7v-27h-7v27Z"/>
  <path id="u" class="cls-1" d="M25,4V19c0,8-5,12-12,12H12C5,31,0,27,0,19V4H25ZM18,4V19.5C18,23,16,25,12.5,25S7,23,7,19.5V4H18Z"/>
</svg>
