<svg id="logo.svg" xmlns="http://www.w3.org/2000/svg" width="78" height="36" viewBox="0 0 78 36">
  <defs>
    <style>
      .cls-1 {
        fill: #2ae;
      }

      .cls-1, .cls-2 {
        fill-rule: evenodd;
      }

      .cls-2 {
        fill: #fff;
      }
    </style>
  </defs>
  <path id="ui" class="cls-1" d="M15.861,30.807a12.722,12.722,0,0,0,3.076-1.09,9.552,9.552,0,0,0,2.362-1.7,8.848,8.848,0,0,0,1.634-2.22A11.319,11.319,0,0,0,24.059,20.5V4.762H17.55v15.21a7.851,7.851,0,0,1-.632,3.483A4.146,4.146,0,0,1,15.037,25.4a6.547,6.547,0,0,1-3.008.638,6.688,6.688,0,0,1-2.884-.572,4.113,4.113,0,0,1-1.868-1.742A5.666,5.666,0,0,1,6.7,22.086a11.4,11.4,0,0,1-.192-2.247V4.762H0V20.5a13.72,13.72,0,0,0,.343,3.191,8.969,8.969,0,0,0,5.04,6.182,14.837,14.837,0,0,0,6.647,1.316A17.547,17.547,0,0,0,15.861,30.807Zm14.213,0.387H36.7V4.762H30.073V31.194Z"/>
  <g id="x">
    <path id="box" class="cls-1" d="M76.474,36h-32.8a1.531,1.531,0,0,1-1.526-1.536V1.536A1.531,1.531,0,0,1,43.672,0h32.8A1.531,1.531,0,0,1,78,1.536V34.464A1.531,1.531,0,0,1,76.474,36ZM68.746,4.683l-8.657,8.667L51.449,4.7,46.735,9.419l8.639,8.649-8.657,8.667,4.72,4.726,8.657-8.666,8.639,8.649,4.714-4.719-8.639-8.649,8.657-8.667Z"/>
    <path id="x-2" data-name="x" class="cls-2" d="M73.466,9.408l-8.657,8.667,8.639,8.649-4.714,4.719-8.639-8.649-8.657,8.667-4.72-4.725,8.657-8.666L46.735,9.419,51.449,4.7l8.639,8.649,8.657-8.667Z"/>
  </g>
</svg>
