<svg id="logo.svg" xmlns="http://www.w3.org/2000/svg" width="96" height="44" viewBox="0 0 96 44">
  <defs>
    <style>
      .cls-1 {
        fill: #2ae;
      }

      .cls-1, .cls-2 {
        fill-rule: evenodd;
      }

      .cls-2 {
        fill: #fff;
      }
    </style>
  </defs>
  <path id="ui" class="cls-1" d="M19.521,37.653a15.726,15.726,0,0,0,3.786-1.332,11.751,11.751,0,0,0,2.907-2.08,10.821,10.821,0,0,0,2.012-2.714,13.753,13.753,0,0,0,1.386-6.467V5.82H21.6V24.41a9.538,9.538,0,0,1-.777,4.257,5.084,5.084,0,0,1-2.316,2.372,8.106,8.106,0,0,1-3.7.78,8.282,8.282,0,0,1-3.55-.7,5.048,5.048,0,0,1-2.3-2.129,6.893,6.893,0,0,1-.71-2,13.833,13.833,0,0,1-.237-2.746V5.82H0V25.06a16.656,16.656,0,0,0,.423,3.9,11.353,11.353,0,0,0,1.3,3.217,11.542,11.542,0,0,0,4.9,4.339A18.371,18.371,0,0,0,14.8,38.125,21.731,21.731,0,0,0,19.521,37.653Zm17.493,0.473h8.159V5.82H37.013V38.126Z"/>
  <g id="x">
    <path id="box" class="cls-1" d="M94.122,44H53.751a1.878,1.878,0,0,1-1.878-1.878V1.878A1.878,1.878,0,0,1,53.751,0H94.122A1.878,1.878,0,0,1,96,1.878V42.122A1.878,1.878,0,0,1,94.122,44ZM84.61,5.723L73.955,16.316,63.322,5.744l-5.8,5.768L68.153,22.084,57.5,32.676l5.809,5.776L73.963,27.859,84.6,38.431l5.8-5.768L79.765,22.091,90.419,11.5Z"/>
    <path id="x-2" data-name="x" class="cls-2" d="M90.419,11.5L79.765,22.091,90.4,32.662l-5.8,5.768L73.963,27.859,63.308,38.452,57.5,32.676,68.153,22.084,57.52,11.513l5.8-5.768L73.955,16.316,84.61,5.723Z"/>
  </g>
</svg>
