<?xml version="1.0" encoding="utf-8"?>
<svg version="1.1" xmlns="http://www.w3.org/2000/svg" xmlns:xlink="http://www.w3.org/1999/xlink" x="0px" y="0px"
	 width="55px" height="24px" viewBox="0 0 55 24" style="enable-background:new 0 0 55 24;" xml:space="preserve">
<path fill="#fff" d="M13,12c0,2.2-1.8,4-4,4s-4-1.8-4-4V3H0v9c0,5,4,9,9,9s9-4,9-9V3h-5V12z M22,21h5V3h-5V21z M52,0H34c-1.7,0-3,1.3-3,3v18
	c0,1.7,1.3,3,3,3h18c1.7,0,3-1.3,3-3V3C55,1.3,53.7,0,52,0z M51.5,17L48,20.5l-4.9-5l-4.9,5L34.5,17l4.9-5l-4.9-5L38,3.5l4.9,5
	l4.9-5L51.3,7l-4.9,5L51.5,17z"/>
</svg>
