<?xml version="1.0" encoding="utf-8"?>
<svg xmlns="http://www.w3.org/2000/svg" xmlns:xlink="http://www.w3.org/1999/xlink" version="1.1" baseProfile="basic" 
	 x="0px" y="0px" width="24px" height="24px" viewBox="0 0 24 24" xml:space="preserve">
<path d="M13.5,7.7c-0.2,1.6-0.4,3.3-0.5,4.9l0,0c0,0.5-0.5,0.9-1,0.9s-0.9-0.4-1-0.9l0,0c-0.1-1.6-0.3-3.3-0.5-4.9l0,0
	c0-0.1,0-0.1,0-0.2C10.5,6.7,11.2,6,12,6s1.5,0.7,1.5,1.5C13.5,7.6,13.5,7.6,13.5,7.7L13.5,7.7z M12,15c0.8,0,1.5,0.7,1.5,1.5
	c0,0.8-0.7,1.5-1.5,1.5s-1.5-0.7-1.5-1.5S11.2,15,12,15z"/>
<path d="M12,3c5,0,9,4,9,9s-4,9-9,9s-9-4-9-9S7,3,12,3 M12,1.5C6.2,1.5,1.5,6.2,1.5,12S6.2,22.5,12,22.5S22.5,17.8,22.5,12
	S17.8,1.5,12,1.5L12,1.5z"/>
</svg>
