<?xml version="1.0" encoding="utf-8"?>
<!-- Generator: Adobe Illustrator 19.2.1, SVG Export Plug-In . SVG Version: 6.00 Build 0)  -->
<svg version="1.1" baseProfile="basic" id="Layer_1"
	 xmlns="http://www.w3.org/2000/svg" xmlns:xlink="http://www.w3.org/1999/xlink" x="0px" y="0px" width="24px" height="24px"
	 viewBox="0 0 24 24" xml:space="preserve">
	<path fill="#000" d="M3.5,7L3.5,7l17.1,0v0C21.3,7,22,6.3,22,5.5C22,4.7,21.3,4,20.5,4v0H3.5v0C2.7,4,2,4.7,2,5.5
		C2,6.3,2.7,7,3.5,7z M20.5,11L20.5,11L3.5,11v0C2.7,11,2,11.7,2,12.5C2,13.3,2.7,14,3.5,14v0h17.1v0c0.8,0,1.5-0.7,1.5-1.5
		C22,11.7,21.3,11,20.5,11z M20.5,18L20.5,18L3.5,18v0C2.7,18,2,18.7,2,19.5C2,20.3,2.7,21,3.5,21v0h17.1v0c0.8,0,1.5-0.7,1.5-1.5
		C22,18.7,21.3,18,20.5,18z"/>
</svg>
