<?xml version="1.0" encoding="utf-8"?>
<svg version="1.1" baseProfile="basic" id="Layer_1"
	 xmlns="http://www.w3.org/2000/svg" xmlns:xlink="http://www.w3.org/1999/xlink" x="0px" y="0px" width="24px" height="24px"
	 viewBox="0 0 24 24" xml:space="preserve">
<path fill="#000" d="M23.6,23.6c-0.6,0.6-1.5,0.6-2.1,0l-6.7-6.1c-1.5,1-3.3,1.6-5.2,1.6C4.3,19,0,14.8,0,9.5S4.3,0,9.5,0
	S19,4.3,19,9.5c0,1.9-0.6,3.7-1.6,5.2l6.1,6.7C24.1,22,24.1,23,23.6,23.6z M9.5,3C5.9,3,3,5.9,3,9.5S5.9,16,9.5,16S16,13.1,16,9.5
	S13.1,3,9.5,3z"/>
</svg>
